<svg width="32" height="32" viewBox="0 0 32 32" fill="none" xmlns="http://www.w3.org/2000/svg">
  <defs>
    <linearGradient id="faviconGradient" x1="0%" y1="0%" x2="100%" y2="100%">
      <stop offset="0%" style="stop-color:#60A5FA;stop-opacity:1" />
      <stop offset="50%" style="stop-color:#3B82F6;stop-opacity:1" />
      <stop offset="100%" style="stop-color:#8B5CF6;stop-opacity:1" />
    </linearGradient>
  </defs>
  <g transform="translate(16,16)">
    <!-- Outer swirl -->
    <path d="M-12,-8 Q-8,-12 0,-12 Q12,-12 12,0 Q12,12 0,12 Q-12,12 -12,0 Q-12,-8 -4,-8 Q8,-8 8,0 Q8,8 0,8 Q-8,8 -8,0 Q-8,-4 -1.5,-4 Q4,-4 4,0 Q4,4 0,4 Q-4,4 -4,0 Q-4,-1.5 -0.8,-1.5 Q1.5,-1.5 1.5,0" 
          stroke="url(#faviconGradient)" 
          stroke-width="2" 
          fill="none" 
          stroke-linecap="round"/>
    
    <!-- Center dot -->
    <circle cx="0" cy="0" r="1" fill="url(#faviconGradient)"/>
  </g>
</svg>