<svg width="80" height="80" viewBox="0 0 80 80" fill="none" xmlns="http://www.w3.org/2000/svg">
  <defs>
    <linearGradient id="logoGradientLarge" x1="0%" y1="0%" x2="100%" y2="100%">
      <stop offset="0%" style="stop-color:#60A5FA;stop-opacity:1" />
      <stop offset="50%" style="stop-color:#3B82F6;stop-opacity:1" />
      <stop offset="100%" style="stop-color:#8B5CF6;stop-opacity:1" />
    </linearGradient>
  </defs>
  <g transform="translate(40,40)">
    <!-- Outer swirl -->
    <path d="M-30,-20 Q-20,-30 0,-30 Q30,-30 30,0 Q30,30 0,30 Q-30,30 -30,0 Q-30,-20 -10,-20 Q20,-20 20,0 Q20,20 0,20 Q-20,20 -20,0 Q-20,-10 -4,-10 Q10,-10 10,0 Q10,10 0,10 Q-10,10 -10,0 Q-10,-4 -2,-4 Q4,-4 4,0" 
          stroke="url(#logoGradientLarge)" 
          stroke-width="3.5" 
          fill="none" 
          stroke-linecap="round"/>
    
    <!-- Inner swirl detail -->
    <path d="M-2,0 Q2,-2 4,0 Q2,2 0,0" 
          fill="url(#logoGradientLarge)" 
          opacity="0.8"/>
    
    <!-- Center dot -->
    <circle cx="0" cy="0" r="2.5" fill="url(#logoGradientLarge)"/>
  </g>
</svg>